<svg width="1200" height="630" viewBox="0 0 1200 630" fill="none" xmlns="http://www.w3.org/2000/svg">
  <rect width="1200" height="630" rx="36" fill="#111111"/>
  <path d="M0 0H1200V630H0V0Z" fill="url(#paint0_radial_401_2)"/>
  <rect x="62" y="62" width="1076" height="506" rx="28" fill="#181818" stroke="#2D2D2D" stroke-width="2"/>
  <rect x="96" y="96" width="444" height="438" rx="26" fill="#161616" stroke="#353535"/>
  <g opacity="0.9">
    <rect x="146" y="146" width="74" height="74" fill="#F0D9B5"/>
    <rect x="220" y="146" width="74" height="74" fill="#B58863"/>
    <rect x="294" y="146" width="74" height="74" fill="#F0D9B5"/>
    <rect x="368" y="146" width="74" height="74" fill="#B58863"/>
    <rect x="442" y="146" width="74" height="74" fill="#F0D9B5"/>
    <rect x="146" y="220" width="74" height="74" fill="#B58863"/>
    <rect x="220" y="220" width="74" height="74" fill="#F0D9B5"/>
    <rect x="294" y="220" width="74" height="74" fill="#B58863"/>
    <rect x="368" y="220" width="74" height="74" fill="#F0D9B5"/>
    <rect x="442" y="220" width="74" height="74" fill="#B58863"/>
    <rect x="146" y="294" width="74" height="74" fill="#F0D9B5"/>
    <rect x="220" y="294" width="74" height="74" fill="#B58863"/>
    <rect x="294" y="294" width="74" height="74" fill="#F0D9B5"/>
    <rect x="368" y="294" width="74" height="74" fill="#B58863"/>
    <rect x="442" y="294" width="74" height="74" fill="#F0D9B5"/>
    <rect x="146" y="368" width="74" height="74" fill="#B58863"/>
    <rect x="220" y="368" width="74" height="74" fill="#F0D9B5"/>
    <rect x="294" y="368" width="74" height="74" fill="#B58863"/>
    <rect x="368" y="368" width="74" height="74" fill="#F0D9B5"/>
    <rect x="442" y="368" width="74" height="74" fill="#B58863"/>
  </g>
  <circle cx="331" cy="257" r="24" fill="#FF9F43"/>
  <circle cx="254" cy="408" r="24" fill="#FFE6D0"/>
  <path d="M331 257L254 408" stroke="#FF9F43" stroke-width="10" stroke-linecap="round"/>
  <path d="M598 154H1054" stroke="#3A3A3A" stroke-width="2"/>
  <text x="598" y="220" fill="#FFB77C" font-family="Arial, sans-serif" font-size="26" letter-spacing="5">REDUCE BLUNDERS</text>
  <text x="598" y="306" fill="#FFF8EF" font-family="Arial, sans-serif" font-size="62" font-weight="700">Threat checks,</text>
  <text x="598" y="380" fill="#FFF8EF" font-family="Arial, sans-serif" font-size="62" font-weight="700">board scans,</text>
  <text x="598" y="454" fill="#FFF8EF" font-family="Arial, sans-serif" font-size="62" font-weight="700">cleaner move release.</text>
  <text x="598" y="518" fill="#C9C2B9" font-family="Arial, sans-serif" font-size="28">Memory Chess learn guides</text>
  <defs>
    <radialGradient id="paint0_radial_401_2" cx="0" cy="0" r="1" gradientUnits="userSpaceOnUse" gradientTransform="translate(1118 44) rotate(137.069) scale(730.441 968.218)">
      <stop stop-color="#FF9F43" stop-opacity="0.18"/>
      <stop offset="1" stop-color="#111111" stop-opacity="0"/>
    </radialGradient>
  </defs>
</svg>
