<svg width="1200" height="630" viewBox="0 0 1200 630" fill="none" xmlns="http://www.w3.org/2000/svg">
  <rect width="1200" height="630" rx="36" fill="#111111"/>
  <path d="M0 0H1200V630H0V0Z" fill="url(#paint0_radial_404_14)"/>
  <rect x="62" y="62" width="1076" height="506" rx="28" fill="#181818" stroke="#2D2D2D" stroke-width="2"/>
  <path d="M146 430C220 430 220 246 296 246C372 246 370 430 446 430C522 430 520 180 596 180" stroke="#FF9F43" stroke-width="14" stroke-linecap="round"/>
  <circle cx="146" cy="430" r="24" fill="#FFF8EF"/>
  <circle cx="296" cy="246" r="24" fill="#FFB77C"/>
  <circle cx="446" cy="430" r="24" fill="#FFF8EF"/>
  <circle cx="596" cy="180" r="24" fill="#FF9F43"/>
  <text x="122" y="492" fill="#C9C2B9" font-family="Arial, sans-serif" font-size="26">drill</text>
  <text x="266" y="208" fill="#C9C2B9" font-family="Arial, sans-serif" font-size="26">review</text>
  <text x="414" y="492" fill="#C9C2B9" font-family="Arial, sans-serif" font-size="26">play</text>
  <text x="560" y="142" fill="#C9C2B9" font-family="Arial, sans-serif" font-size="26">repeat</text>
  <path d="M668 154H1054" stroke="#3A3A3A" stroke-width="2"/>
  <text x="668" y="220" fill="#FFB77C" font-family="Arial, sans-serif" font-size="26" letter-spacing="5">DAILY ROUTINE</text>
  <text x="668" y="306" fill="#FFF8EF" font-family="Arial, sans-serif" font-size="62" font-weight="700">Short plans</text>
  <text x="668" y="380" fill="#FFF8EF" font-family="Arial, sans-serif" font-size="62" font-weight="700">that survive</text>
  <text x="668" y="454" fill="#FFF8EF" font-family="Arial, sans-serif" font-size="62" font-weight="700">real schedules.</text>
  <text x="668" y="518" fill="#C9C2B9" font-family="Arial, sans-serif" font-size="28">Memory Chess learn guides</text>
  <defs>
    <radialGradient id="paint0_radial_404_14" cx="0" cy="0" r="1" gradientUnits="userSpaceOnUse" gradientTransform="translate(1118 44) rotate(137.069) scale(730.441 968.218)">
      <stop stop-color="#FF9F43" stop-opacity="0.18"/>
      <stop offset="1" stop-color="#111111" stop-opacity="0"/>
    </radialGradient>
  </defs>
</svg>
