<svg width="1200" height="630" viewBox="0 0 1200 630" fill="none" xmlns="http://www.w3.org/2000/svg">
  <rect width="1200" height="630" rx="36" fill="#101214"/>
  <path d="M0 0H1200V630H0V0Z" fill="url(#paint0_radial_402_6)"/>
  <rect x="62" y="62" width="1076" height="506" rx="28" fill="#171A1F" stroke="#2A313A" stroke-width="2"/>
  <circle cx="322" cy="315" r="170" stroke="#4CC9F0" stroke-width="2" stroke-dasharray="8 14"/>
  <circle cx="322" cy="315" r="112" stroke="#FF9F43" stroke-width="2" stroke-dasharray="8 14"/>
  <circle cx="322" cy="315" r="52" fill="#4CC9F0" fill-opacity="0.16" stroke="#4CC9F0" stroke-width="2"/>
  <circle cx="198" cy="232" r="14" fill="#FFF8EF"/>
  <circle cx="447" cy="258" r="14" fill="#FF9F43"/>
  <circle cx="251" cy="438" r="14" fill="#FFF8EF"/>
  <circle cx="432" cy="408" r="14" fill="#4CC9F0"/>
  <path d="M322 315L198 232" stroke="#4CC9F0" stroke-width="6" stroke-linecap="round"/>
  <path d="M322 315L447 258" stroke="#FF9F43" stroke-width="6" stroke-linecap="round"/>
  <path d="M322 315L251 438" stroke="#FFF8EF" stroke-width="6" stroke-linecap="round"/>
  <path d="M322 315L432 408" stroke="#4CC9F0" stroke-width="6" stroke-linecap="round"/>
  <path d="M598 154H1054" stroke="#303844" stroke-width="2"/>
  <text x="598" y="220" fill="#8ADDF6" font-family="Arial, sans-serif" font-size="26" letter-spacing="5">VISUALIZATION</text>
  <text x="598" y="306" fill="#FFF8EF" font-family="Arial, sans-serif" font-size="62" font-weight="700">See the board</text>
  <text x="598" y="380" fill="#FFF8EF" font-family="Arial, sans-serif" font-size="62" font-weight="700">more clearly</text>
  <text x="598" y="454" fill="#FFF8EF" font-family="Arial, sans-serif" font-size="62" font-weight="700">before you calculate.</text>
  <text x="598" y="518" fill="#C9D0D8" font-family="Arial, sans-serif" font-size="28">Memory Chess learn guides</text>
  <defs>
    <radialGradient id="paint0_radial_402_6" cx="0" cy="0" r="1" gradientUnits="userSpaceOnUse" gradientTransform="translate(1086 56) rotate(137.409) scale(781.722 1035.01)">
      <stop stop-color="#4CC9F0" stop-opacity="0.18"/>
      <stop offset="1" stop-color="#101214" stop-opacity="0"/>
    </radialGradient>
  </defs>
</svg>
